<?xml version="1.0" encoding="UTF-8" standalone="no"?>
<!-- Created with Inkscape (http://www.inkscape.org/) -->

<svg
   width="19.049988mm"
   height="25.929169mm"
   viewBox="0 0 19.049988 25.929169"
   version="1.1"
   id="svg5"
   xml:space="preserve"
   xmlns="http://www.w3.org/2000/svg"
   xmlns:svg="http://www.w3.org/2000/svg"><defs
     id="defs2" /><g
     id="layer1"
     transform="translate(-63.28409,-85.705572)"><path
       style="fill:#000000;stroke-width:0.352778"
       d="m 72.809088,111.63474 h -9.525 v -0.35278 -0.35278 h 0.524711 0.52471 l 0.09265,-12.611802 0.09265,-12.611805 h 8.290278 8.290277 l 0.09265,12.611805 0.09265,12.611802 h 0.52471 0.524711 v 0.35278 0.35278 z m 0.07982,-0.78671 7.504897,-0.0952 V 98.581961 86.411129 h -7.584721 -7.584722 l -0.09306,11.815546 -0.09306,11.815545 0.172881,0.45052 0.172881,0.45052 z m -6.880769,-1.58667 -0.141696,1.13866 0.0029,-2.46945 0.0029,-2.46944 0.138851,1.33078 0.13885,1.33079 -0.141696,1.13866 z m 13.767584,-3.73313 -0.109101,4.87179 -3.44e-4,-9.525 -3.44e-4,-9.525003 0.109445,4.653214 0.109445,4.653209 z m -13.790795,-1.55969 -0.175698,0.43425 0.01307,-1.05833 0.01307,-1.05833 0.162626,0.62407 0.162627,0.62408 -0.175698,0.43426 z m 0.0316,-5.827551 -0.115331,3.439581 V 94.701406 87.82224 l 0.115331,3.439583 0.115331,3.439583 z m 11.465286,2.141411 -0.795327,0.11294 -0.212555,-0.553914 -0.212555,-0.55391 0.212555,-0.553909 0.212555,-0.553909 0.795327,0.112937 0.795328,0.112937 v 0.881944 0.881944 z m -0.08662,-0.289328 h 0.311138 l 0.237026,-0.383516 0.237026,-0.383516 -0.392595,-0.392595 -0.392595,-0.392595 -0.392595,0.392595 -0.392595,0.392595 0.237026,0.383516 0.237026,0.383516 z m 2.293056,-9.877777 h -0.176389 v -1.402971 -1.402971 l -6.261805,-0.105012 -6.261805,-0.105012 6.438194,-0.07952 6.438194,-0.07952 v 1.5875 1.5875 z"
       id="path255" /><path
       style="fill:#eaa871;fill-opacity:1;stroke-width:0.238791"
       d="m 246.56045,417.46636 -0.64358,-1.73123 0.25718,-34.14711 c 0.14145,-18.78091 0.32381,-38.79459 0.40526,-44.47483 l 0.14809,-10.32771 h 28.50737 28.50738 v 45.8199 45.8199 l -9.37255,0.1557 c -10.79231,0.17929 -42.93146,0.61465 -45.46201,0.61583 l -1.70357,7.9e-4 z m 3.10354,-5.03241 c 0.43047,-3.67547 0.43054,-3.9039 0.002,-8.35768 -0.24214,-2.51841 -0.52475,-4.79384 -0.62804,-5.05651 -0.10329,-0.26267 -0.18537,3.76693 -0.18241,8.95466 0.003,5.18774 0.0864,9.16361 0.18547,8.83527 0.099,-0.32834 0.37923,-2.29742 0.62264,-4.37574 z m 52.01683,-15.20512 c 0.32742,-17.15677 0.32368,-20.13448 -0.0441,-35.14234 -0.22102,-9.01849 -0.48245,-16.47772 -0.58095,-16.57608 -0.0985,-0.0983 -0.16812,16.03807 -0.15471,35.85871 0.0134,19.82065 0.11385,35.71518 0.22321,35.32117 0.10936,-0.394 0.35982,-9.15166 0.55657,-19.46146 z m -52.06957,-4.45992 0.59411,-1.47503 -0.65333,-2.44887 c -0.50478,-1.89204 -0.68866,-2.3168 -0.80871,-1.86804 -0.24487,0.91542 -0.19381,7.75391 0.056,7.49382 0.11982,-0.12477 0.4852,-0.89061 0.81197,-1.70188 z m 0.0624,-22.48603 c 0.37034,-11.43214 0.37035,-13.10158 1.1e-4,-24.71487 -0.21839,-6.85001 -0.42994,-12.72321 -0.47012,-13.05154 -0.0402,-0.32834 -0.0719,11.11572 -0.0706,25.43124 0.001,14.31552 0.0342,25.70585 0.0729,25.31184 0.0388,-0.394 0.24923,-6.2335 0.46767,-12.97667 z m 43.9796,8.76435 2.20882,-0.29131 v -3.49586 -3.49587 l -2.20882,-0.29131 c -1.21485,-0.16022 -2.59343,-0.35155 -3.06352,-0.42519 l -0.85471,-0.13388 -0.75713,2.00605 c -0.41642,1.10333 -0.75713,2.15642 -0.75713,2.3402 0,0.18378 0.34071,1.23686 0.75713,2.34019 l 0.75713,2.00605 0.85471,-0.13388 c 0.47009,-0.0736 1.84867,-0.26497 3.06352,-0.42519 z m 8.41738,-44.53714 v -6.12528 l -6.62645,0.15338 c -3.64454,0.0844 -13.87972,0.22311 -22.74484,0.30833 -8.86511,0.0852 -16.87058,0.23276 -17.78993,0.32788 -1.37127,0.14187 -1.00666,0.17867 2.02973,0.20488 6.80068,0.0587 32.76689,0.50394 38.14686,0.65413 l 5.3131,0.14831 v 5.22682 5.22682 h 0.83577 0.83576 z"
       id="path2741"
       transform="scale(0.26458333)" /></g></svg>
